<mxfile host="65bd71144e">
    <diagram name="第 1 页" id="8qXEa_NGbsG238I1EOQG">
        <mxGraphModel dx="746" dy="427" grid="1" gridSize="10" guides="1" tooltips="1" connect="1" arrows="1" fold="1" page="1" pageScale="1" pageWidth="827" pageHeight="1169" math="0" shadow="0">
            <root>
                <mxCell id="0"/>
                <mxCell id="1" parent="0"/>
                <mxCell id="Jedb9fppQd8xuuDOEieM-1" value="" style="rounded=1;whiteSpace=wrap;html=1;fillStyle=solid;comic=1;fillColor=#e3c800;strokeColor=#B09500;fontColor=#000000;gradientColor=none;" parent="1" vertex="1">
                    <mxGeometry x="140" y="50" width="120" height="60" as="geometry"/>
                </mxCell>
                <mxCell id="2" value="" style="ellipse;whiteSpace=wrap;html=1;aspect=fixed;fillColor=#fa6800;fontColor=#000000;strokeColor=#C73500;" parent="1" vertex="1">
                    <mxGeometry x="310" y="40" width="80" height="80" as="geometry"/>
                </mxCell>
                <mxCell id="3" value="" style="rounded=1;whiteSpace=wrap;html=1;fillStyle=solid;comic=1;fillColor=#e3c800;strokeColor=#B09500;fontColor=#000000;gradientColor=none;" vertex="1" parent="1">
                    <mxGeometry x="140" y="150" width="120" height="60" as="geometry"/>
                </mxCell>
            </root>
        </mxGraphModel>
    </diagram>
    <diagram id="CTXewtZjie-2r-kqGOWe" name="第 2 页">
        <mxGraphModel dx="746" dy="427" grid="1" gridSize="10" guides="1" tooltips="1" connect="1" arrows="1" fold="1" page="1" pageScale="1" pageWidth="827" pageHeight="1169" math="0" shadow="0">
            <root>
                <mxCell id="0"/>
                <mxCell id="1" parent="0"/>
            </root>
        </mxGraphModel>
    </diagram>
</mxfile>